# xmcd CD database file
#
# Track frame offsets:
#	150
#	14340
#	28457
#	47235
#	63917
#	77702
#	95317
#	110057
#	122965
#	137940
#	140257
#
# Disc length: 2091 seconds
#
# Revision: 2
# Processed by: cddbd v1.5.1PL0 Copyright (c) Steve Scherf et al.
# Submitted via: CDex 1.51
#
DISCID=9e08290b
DTITLE=Billy Dean - Billy Dean
DYEAR=1991
DGENRE=Country
TTITLE0=Billy The Kid
TTITLE1=Simple Things
TTITLE2=Hammer Down
TTITLE3=Only The Wind
TTITLE4=Small Favors
TTITLE5=I Shoulda Listened
TTITLE6=You Don't Count The Cost
TTITLE7=Gone But Not Forgotten
TTITLE8=If There Hadn't Been You
TTITLE9=Intro: Daddy's Will
TTITLE10=Daddy's Will
EXTD=YEAR: 1991
EXTT0=
EXTT1=
EXTT2=
EXTT3=
EXTT4=
EXTT5=
EXTT6=
EXTT7=
EXTT8=
EXTT9=
EXTT10=
PLAYORDER=
